<?xml version="1.0" encoding="UTF-8" standalone="no"?>
<svg
   xmlns:dc="http://purl.org/dc/elements/1.1/"
   xmlns:cc="http://creativecommons.org/ns#"
   xmlns:rdf="http://www.w3.org/1999/02/22-rdf-syntax-ns#"
   xmlns:svg="http://www.w3.org/2000/svg"
   xmlns="http://www.w3.org/2000/svg"
   xmlns:sodipodi="http://sodipodi.sourceforge.net/DTD/sodipodi-0.dtd"
   xmlns:inkscape="http://www.inkscape.org/namespaces/inkscape"
   width="192"
   height="192"
   viewBox="0 0 50.799999 50.800001"
   version="1.1"
   id="svg8"
   inkscape:export-filename="C:\Users\doogl\code\dodgy-tabs\src\icons\question.png"
   inkscape:export-xdpi="96"
   inkscape:export-ydpi="96"
   inkscape:version="1.0 (4035a4fb49, 2020-05-01)"
   sodipodi:docname="question.svg">
  <defs
     id="defs2" />
  <sodipodi:namedview
     inkscape:pagecheckerboard="true"
     id="base"
     pagecolor="#ffffff"
     bordercolor="#666666"
     borderopacity="1.0"
     inkscape:pageopacity="0"
     inkscape:pageshadow="2"
     inkscape:zoom="2.8"
     inkscape:cx="86.237334"
     inkscape:cy="113.61873"
     inkscape:document-units="mm"
     inkscape:current-layer="layer1"
     inkscape:document-rotation="0"
     showgrid="false"
     units="px"
     inkscape:window-width="1500"
     inkscape:window-height="938"
     inkscape:window-x="-6"
     inkscape:window-y="-6"
     inkscape:window-maximized="1" />
  <metadata
     id="metadata5">
    <rdf:RDF>
      <cc:Work
         rdf:about="">
        <dc:format>image/svg+xml</dc:format>
        <dc:type
           rdf:resource="http://purl.org/dc/dcmitype/StillImage" />
        <dc:title></dc:title>
      </cc:Work>
    </rdf:RDF>
  </metadata>
  <g
     inkscape:label="Layer 1"
     inkscape:groupmode="layer"
     id="layer1">
    <g
       style="stroke-width:0.838583"
       transform="matrix(1.4220289,0,0,1,-10.960849,0)"
       id="g1441">
      <g
         aria-label="?"
         id="text835"
         style="font-style:normal;font-variant:normal;font-weight:normal;font-stretch:normal;font-size:68.0552px;line-height:1.25;font-family:Algerian;-inkscape-font-specification:Algerian;letter-spacing:0px;word-spacing:0px;fill:#ffffff;fill-opacity:1;stroke:none;stroke-width:0.221874"
         transform="translate(-1.0583333,1.0583333)">
        <path
           d="m 17.286173,19.762435 c -1.617197,-1.949497 -2.425796,-4.020839 -2.425796,-6.214024 0,-2.81348 1.107669,-5.1063553 3.323008,-6.8786261 2.237492,-1.7722708 5.117432,-2.6584062 8.63982,-2.6584062 3.633155,0 6.657092,0.9858256 9.071811,2.9574769 2.436873,1.9716513 3.655309,4.4306774 3.655309,7.3770774 0,2.060265 -0.509528,3.865765 -1.528584,5.416502 -1.019055,1.528584 -2.758096,3.123628 -5.217122,4.785132 l -3.522388,2.359335 c -1.151976,0.775369 -2.182108,1.783348 -3.090397,3.023937 -0.886135,1.218436 -1.30705,2.204262 -1.262743,2.957477 l 0.09969,1.827654 c 0.02215,0.310147 -0.07754,0.587065 -0.299071,0.830752 -0.19938,0.221534 -0.465221,0.321224 -0.797522,0.299071 -0.509527,-0.02215 -0.963672,-0.387684 -1.362433,-1.096593 -0.398761,-0.708908 -0.598141,-1.517506 -0.598141,-2.425795 0,-3.035014 1.683657,-6.269408 5.050972,-9.703183 2.215338,-2.259645 3.699615,-4.042993 4.45283,-5.350042 0.775369,-1.30705 1.163053,-2.735943 1.163053,-4.28668 0,-1.883038 -4.231297,-6.3137151 -6.047874,-6.3137151 -1.528584,0 -2.846711,0.4873745 -3.95438,1.4621234 -1.107669,0.9525955 -1.661504,2.1045717 -1.661504,3.4559277 0,1.43997 0.908289,2.702713 2.724867,3.788229 -0.199381,0.132921 -0.310148,0.210458 -0.332301,0.232611 l -1.794424,1.030132 c -1.284897,0.731062 -2.71379,1.772271 -4.28668,3.123627 z m 14.621234,-7.975218 h -0.199381 c -1.351356,-1.7944243 -0.841828,-2.3925657 0.199381,0 z m -4.918052,25.65362 c 1.196283,0 2.215339,0.420914 3.057168,1.262743 0.841829,0.841828 1.262743,1.860884 1.262743,3.057167 0,1.174129 -0.420914,2.182108 -1.262743,3.023937 -0.841829,0.841829 -1.860885,1.262743 -3.057168,1.262743 -1.174129,0 -2.182108,-0.420914 -3.023937,-1.262743 -0.841829,-0.841829 -1.262743,-1.849808 -1.262743,-3.023937 0,-1.196283 0.420914,-2.215339 1.262743,-3.057167 0.841829,-0.841829 1.849808,-1.262743 3.023937,-1.262743 z"
           style="fill:#ffffff;stroke-width:0.221874"
           id="path1425"
           sodipodi:nodetypes="cscscsccccccccssccsscscccccccsssssssss" />
      </g>
      <text
         xml:space="preserve"
         style="font-style:normal;font-variant:normal;font-weight:normal;font-stretch:normal;font-size:68.0552px;line-height:1.25;font-family:Algerian;-inkscape-font-specification:Algerian;letter-spacing:0px;word-spacing:0px;fill:#aaeeff;fill-opacity:1;stroke:none;stroke-width:0.221874"
         x="11.084723"
         y="47.744675"
         id="text1423"><tspan
           sodipodi:role="line"
           id="tspan1421"
           x="11.084723"
           y="47.744675"
           style="fill:#aaeeff;stroke-width:0.221874">?</tspan></text>
    </g>
  </g>
</svg>
